<svg width="28" height="28" viewBox="0 0 28 28" fill="none" xmlns="http://www.w3.org/2000/svg">
<g id="clarity:arrow-line">
<path id="Vector" d="M7.47444 6.45217L-3.41819e-07 13.9655L7.47444 21.4788C7.54195 21.5675 7.62771 21.6406 7.72592 21.6932C7.82414 21.7458 7.93251 21.7767 8.04371 21.7838C8.15491 21.7909 8.26633 21.774 8.37043 21.7343C8.47454 21.6946 8.5689 21.633 8.64712 21.5537C8.72534 21.4743 8.7856 21.3791 8.82382 21.2744C8.86204 21.1698 8.87733 21.0581 8.86865 20.947C8.85996 20.8359 8.82751 20.728 8.7735 20.6306C8.71948 20.5331 8.64516 20.4484 8.55556 20.3822L2.96333 14.7433L17.8422 14.7433C18.0485 14.7433 18.2463 14.6613 18.3922 14.5155C18.5381 14.3696 18.62 14.1718 18.62 13.9655C18.62 13.7592 18.5381 13.5614 18.3922 13.4155C18.2463 13.2697 18.0485 13.1877 17.8422 13.1877L2.96333 13.1877L8.55555 7.54883C8.70098 7.40237 8.78227 7.20414 8.78154 6.99775C8.78081 6.79135 8.69812 6.5937 8.55167 6.44828C8.40521 6.30285 8.20698 6.22156 8.00058 6.22229C7.79419 6.22302 7.59654 6.30571 7.45111 6.45217L7.47444 6.45217Z" fill="white"/>
</g>
</svg>
