<svg width="20" height="20" viewBox="0 0 20 20" fill="none" xmlns="http://www.w3.org/2000/svg">
<g id="fluent:arrow-next-20-filled">
<path id="Vector" d="M6.68984 4.2616C6.84102 4.11038 7.04145 4.01844 7.25469 4.00249C7.46792 3.98654 7.6798 4.04764 7.85179 4.17469L7.9518 4.2616L13.3092 9.61895C13.4604 9.77013 13.5523 9.97056 13.5683 10.1838C13.5842 10.397 13.5231 10.6089 13.3961 10.7809L13.3092 10.8809L7.9518 16.2383C7.79227 16.3966 7.57891 16.4889 7.35432 16.4968C7.12972 16.5047 6.91041 16.4276 6.74014 16.2809C6.56987 16.1343 6.46117 15.9288 6.43574 15.7055C6.41031 15.4822 6.47001 15.2575 6.60293 15.0763L6.68984 14.9763L11.4162 10.2499L6.68984 5.52355C6.52263 5.35613 6.42871 5.12919 6.42871 4.89257C6.42871 4.65596 6.52263 4.42901 6.68984 4.2616Z" fill="#BCC1CB"/>
</g>
</svg>
