<svg width="30" height="30" viewBox="0 0 30 30" fill="none" xmlns="http://www.w3.org/2000/svg">
<g id="mingcute:checkbox-fill">
<g id="Group">
<path id="Vector" fill-rule="evenodd" clip-rule="evenodd" d="M6.25 3.75C5.58696 3.75 4.95107 4.01339 4.48223 4.48223C4.01339 4.95107 3.75 5.58696 3.75 6.25V23.75C3.75 24.413 4.01339 25.0489 4.48223 25.5178C4.95107 25.9866 5.58696 26.25 6.25 26.25H23.75C24.413 26.25 25.0489 25.9866 25.5178 25.5178C25.9866 25.0489 26.25 24.413 26.25 23.75V6.25C26.25 5.58696 25.9866 4.95107 25.5178 4.48223C25.0489 4.01339 24.413 3.75 23.75 3.75H6.25ZM21.1875 12.245C21.4221 12.0106 21.5539 11.6927 21.554 11.3611C21.5541 11.0295 21.4225 10.7114 21.1881 10.4769C20.9537 10.2423 20.6358 10.1105 20.3042 10.1104C19.9726 10.1103 19.6546 10.2419 19.42 10.4762L13.2325 16.6638L10.5813 14.0125C10.4652 13.8964 10.3274 13.8042 10.1757 13.7413C10.0241 13.6785 9.8615 13.6461 9.69732 13.646C9.36573 13.6459 9.04768 13.7775 8.81312 14.0119C8.57857 14.2463 8.44674 14.5642 8.44662 14.8958C8.4465 15.2274 8.57811 15.5454 8.8125 15.78L12.26 19.2275C12.3877 19.3552 12.5393 19.4566 12.7062 19.5257C12.873 19.5949 13.0519 19.6305 13.2325 19.6305C13.4131 19.6305 13.592 19.5949 13.7588 19.5257C13.9257 19.4566 14.0773 19.3552 14.205 19.2275L21.1875 12.245Z" fill="#74EFC2"/>
</g>
</g>
</svg>
