<svg width="17" height="16" viewBox="0 0 17 16" fill="none" xmlns="http://www.w3.org/2000/svg">
<g id="Vector">
<path d="M15.9992 2.62177V13.5001C15.9992 14.0305 15.8016 14.5392 15.45 14.9142C15.0984 15.2893 14.6215 15.5 14.1243 15.5H2.8749C2.37764 15.5 1.90075 15.2893 1.54914 14.9142C1.19753 14.5392 1 14.0305 1 13.5001V2.50077C1 1.97037 1.19753 1.4617 1.54914 1.08665C1.90075 0.711595 2.37764 0.500894 2.8749 0.500894H14.0108L13.0734 1.50083H2.8749C2.62627 1.50083 2.38783 1.60618 2.21202 1.79371C2.03621 1.98124 1.93745 2.23557 1.93745 2.50077V13.5001C1.93745 13.7653 2.03621 14.0197 2.21202 14.2072C2.38783 14.3947 2.62627 14.5001 2.8749 14.5001H14.1243C14.3729 14.5001 14.6113 14.3947 14.7871 14.2072C14.9629 14.0197 15.0617 13.7653 15.0617 13.5001V3.62171L15.9992 2.62177ZM3.14286 4.00069C3.14286 3.86808 3.19224 3.74092 3.28014 3.64715C3.36805 3.55339 3.48727 3.50071 3.61158 3.50071H5.21851C5.34283 3.50071 5.46205 3.55339 5.54995 3.64715C5.63785 3.74092 5.68724 3.86808 5.68724 4.00069C5.68724 4.13329 5.63785 4.26046 5.54995 4.35422C5.46205 4.44798 5.34283 4.50066 5.21851 4.50066H3.61158C3.48727 4.50066 3.36805 4.44798 3.28014 4.35422C3.19224 4.26046 3.14286 4.13329 3.14286 4.00069ZM3.14286 7.00051C3.14286 6.86791 3.19224 6.74074 3.28014 6.64697C3.36805 6.55321 3.48727 6.50054 3.61158 6.50054H7.56213C7.68645 6.50054 7.80567 6.55321 7.89357 6.64697C7.98147 6.74074 8.03086 6.86791 8.03086 7.00051C8.03086 7.13311 7.98147 7.26028 7.89357 7.35404C7.80567 7.4478 7.68645 7.50048 7.56213 7.50048H3.61158C3.48727 7.50048 3.36805 7.4478 3.28014 7.35404C3.19224 7.26028 3.14286 7.13311 3.14286 7.00051ZM15.8623 0.646885C15.9059 0.693328 15.9406 0.7485 15.9642 0.809241C15.9878 0.869983 16 0.9351 16 1.00086C16 1.06663 15.9878 1.13174 15.9642 1.19249C15.9406 1.25323 15.9059 1.3084 15.8623 1.35484L10.2376 7.35449C10.1496 7.44837 10.0302 7.50111 9.90575 7.50111C9.78128 7.50111 9.66191 7.44837 9.57389 7.35449C9.48588 7.2606 9.43644 7.13327 9.43644 7.00051C9.43644 6.86774 9.48588 6.74041 9.57389 6.64653L15.1986 0.646885C15.2421 0.600324 15.2938 0.563383 15.3508 0.538179C15.4077 0.512974 15.4688 0.5 15.5304 0.5C15.5921 0.5 15.6531 0.512974 15.7101 0.538179C15.767 0.563383 15.8188 0.600324 15.8623 0.646885Z" fill="#E9EBF0"/>
<path d="M3.14286 9.99943C3.14286 9.86683 3.19224 9.73966 3.28014 9.6459C3.36805 9.55214 3.48727 9.49946 3.61158 9.49946H9.43703C9.56134 9.49946 9.68056 9.55214 9.76847 9.6459C9.85637 9.73966 9.90575 9.86683 9.90575 9.99943C9.90575 10.132 9.85637 10.2592 9.76847 10.353C9.68056 10.4467 9.56134 10.4994 9.43703 10.4994H3.61158C3.48727 10.4994 3.36805 10.4467 3.28014 10.353C3.19224 10.2592 3.14286 10.132 3.14286 9.99943Z" fill="#E9EBF0"/>
<path d="M15.9992 2.62177V13.5001C15.9992 14.0305 15.8016 14.5392 15.45 14.9142C15.0984 15.2893 14.6215 15.5 14.1243 15.5H2.8749C2.37764 15.5 1.90075 15.2893 1.54914 14.9142C1.19753 14.5392 1 14.0305 1 13.5001V2.50077C1 1.97037 1.19753 1.4617 1.54914 1.08665C1.90075 0.711595 2.37764 0.500894 2.8749 0.500894H14.0108L13.0734 1.50083H2.8749C2.62627 1.50083 2.38783 1.60618 2.21202 1.79371C2.03621 1.98124 1.93745 2.23557 1.93745 2.50077V13.5001C1.93745 13.7653 2.03621 14.0197 2.21202 14.2072C2.38783 14.3947 2.62627 14.5001 2.8749 14.5001H14.1243C14.3729 14.5001 14.6113 14.3947 14.7871 14.2072C14.9629 14.0197 15.0617 13.7653 15.0617 13.5001V3.62171L15.9992 2.62177ZM3.14286 4.00069C3.14286 3.86808 3.19224 3.74092 3.28014 3.64715C3.36805 3.55339 3.48727 3.50071 3.61158 3.50071H5.21851C5.34283 3.50071 5.46205 3.55339 5.54995 3.64715C5.63785 3.74092 5.68724 3.86808 5.68724 4.00069C5.68724 4.13329 5.63785 4.26046 5.54995 4.35422C5.46205 4.44798 5.34283 4.50066 5.21851 4.50066H3.61158C3.48727 4.50066 3.36805 4.44798 3.28014 4.35422C3.19224 4.26046 3.14286 4.13329 3.14286 4.00069ZM3.14286 7.00051C3.14286 6.86791 3.19224 6.74074 3.28014 6.64697C3.36805 6.55321 3.48727 6.50054 3.61158 6.50054H7.56213C7.68645 6.50054 7.80567 6.55321 7.89357 6.64697C7.98147 6.74074 8.03086 6.86791 8.03086 7.00051C8.03086 7.13311 7.98147 7.26028 7.89357 7.35404C7.80567 7.4478 7.68645 7.50048 7.56213 7.50048H3.61158C3.48727 7.50048 3.36805 7.4478 3.28014 7.35404C3.19224 7.26028 3.14286 7.13311 3.14286 7.00051ZM15.8623 0.646885C15.9059 0.693328 15.9406 0.7485 15.9642 0.809241C15.9878 0.869983 16 0.9351 16 1.00086C16 1.06663 15.9878 1.13174 15.9642 1.19249C15.9406 1.25323 15.9059 1.3084 15.8623 1.35484L10.2376 7.35449C10.1496 7.44837 10.0302 7.50111 9.90575 7.50111C9.78128 7.50111 9.66191 7.44837 9.57389 7.35449C9.48588 7.2606 9.43644 7.13327 9.43644 7.00051C9.43644 6.86774 9.48588 6.74041 9.57389 6.64653L15.1986 0.646885C15.2421 0.600324 15.2938 0.563383 15.3508 0.538179C15.4077 0.512974 15.4688 0.5 15.5304 0.5C15.5921 0.5 15.6531 0.512974 15.7101 0.538179C15.767 0.563383 15.8188 0.600324 15.8623 0.646885Z" stroke="#E9EBF0" stroke-width="0.4"/>
<path d="M3.14286 9.99943C3.14286 9.86683 3.19224 9.73966 3.28014 9.6459C3.36805 9.55214 3.48727 9.49946 3.61158 9.49946H9.43703C9.56134 9.49946 9.68056 9.55214 9.76847 9.6459C9.85637 9.73966 9.90575 9.86683 9.90575 9.99943C9.90575 10.132 9.85637 10.2592 9.76847 10.353C9.68056 10.4467 9.56134 10.4994 9.43703 10.4994H3.61158C3.48727 10.4994 3.36805 10.4467 3.28014 10.353C3.19224 10.2592 3.14286 10.132 3.14286 9.99943Z" stroke="#E9EBF0" stroke-width="0.4"/>
</g>
</svg>
