<svg width="15" height="18" viewBox="0 0 15 18" fill="none" xmlns="http://www.w3.org/2000/svg">
<path d="M13.3333 2.25H12.5V1.40625C12.5 0.942187 12.125 0.5625 11.6667 0.5625C11.2083 0.5625 10.8333 0.942187 10.8333 1.40625V2.25H4.16667V1.40625C4.16667 0.942187 3.79167 0.5625 3.33333 0.5625C2.875 0.5625 2.5 0.942187 2.5 1.40625V2.25H1.66667C0.741667 2.25 0.00833333 3.00937 0.00833333 3.9375L0 15.75C0 16.1976 0.175595 16.6268 0.488155 16.9432C0.800716 17.2597 1.22464 17.4375 1.66667 17.4375H13.3333C14.25 17.4375 15 16.6781 15 15.75V3.9375C15 3.00937 14.25 2.25 13.3333 2.25ZM13.3333 14.9062C13.3333 15.3703 12.9583 15.75 12.5 15.75H2.5C2.04167 15.75 1.66667 15.3703 1.66667 14.9062V6.46875H13.3333V14.9062ZM3.33333 8.15625H5V9.84375H3.33333V8.15625ZM6.66667 8.15625H8.33333V9.84375H6.66667V8.15625ZM10 8.15625H11.6667V9.84375H10V8.15625Z" fill="#E9EBF0"/>
</svg>
