<svg width="17" height="18" viewBox="0 0 17 18" fill="none" xmlns="http://www.w3.org/2000/svg">
<path d="M3.19679 2.36708C4.60331 0.911491 6.51095 0.09375 8.50006 0.09375C10.4892 0.09375 12.3968 0.911491 13.8033 2.36708C15.2098 3.82267 16 5.79687 16 7.85538C16 9.9139 15.2098 11.8881 13.8033 13.3437L12.7809 14.3902C12.0275 15.155 11.0496 16.1391 9.84719 17.3425C9.48579 17.7041 9.00276 17.9062 8.50006 17.9062C7.99735 17.9062 7.51432 17.7041 7.15292 17.3425L4.14599 14.3153C3.76757 13.9314 3.45118 13.6075 3.19679 13.3437C2.50033 12.623 1.94786 11.7673 1.57093 10.8257C1.194 9.88397 1 8.87467 1 7.85538C1 6.8361 1.194 5.8268 1.57093 4.88511C1.94786 3.94343 2.50033 3.0878 3.19679 2.36708ZM12.8894 3.31196C12.3129 2.71536 11.6285 2.24213 10.8752 1.91928C10.122 1.59643 9.31462 1.43028 8.49932 1.43032C7.68402 1.43036 6.8767 1.59659 6.12348 1.91952C5.37025 2.24245 4.68586 2.71575 4.10938 3.3124C3.5329 3.90905 3.07563 4.61737 2.76366 5.39691C2.4517 6.17645 2.29115 7.01195 2.29119 7.8557C2.29123 8.69945 2.45185 9.53493 2.76389 10.3144C3.07593 11.0939 3.53328 11.8022 4.10981 12.3988L5.39148 13.7074C6.09663 14.4211 6.98324 15.3125 8.0513 16.3816C8.17174 16.5019 8.33263 16.5692 8.50006 16.5692C8.66749 16.5692 8.82837 16.5019 8.94881 16.3816L11.8731 13.44C12.2779 13.0293 12.6167 12.6823 12.8894 12.3988C14.0535 11.194 14.7075 9.56004 14.7075 7.85627C14.7075 6.1525 14.0535 4.51851 12.8894 3.31374M8.50006 5.42545C8.83962 5.42545 9.17586 5.49466 9.48957 5.62914C9.80329 5.76362 10.0883 5.96073 10.3284 6.20922C10.5686 6.4577 10.759 6.7527 10.889 7.07736C11.0189 7.40202 11.0858 7.75 11.0858 8.10141C11.0858 8.45282 11.0189 8.80079 10.889 9.12545C10.759 9.45012 10.5686 9.74511 10.3284 9.9936C10.0883 10.2421 9.80329 10.4392 9.48957 10.5737C9.17586 10.7082 8.83962 10.7774 8.50006 10.7774C7.82256 10.7646 7.17699 10.4771 6.70224 9.9767C6.2275 9.47633 5.96151 8.8031 5.96151 8.10185C5.96151 7.4006 6.2275 6.72737 6.70224 6.22701C7.17699 5.72665 7.82256 5.43914 8.50006 5.42634M8.50006 6.76343C8.15694 6.76343 7.82787 6.90449 7.58525 7.15557C7.34263 7.40666 7.20633 7.74721 7.20633 8.1023C7.20633 8.45739 7.34263 8.79794 7.58525 9.04902C7.82787 9.30011 8.15694 9.44117 8.50006 9.44117C8.83728 9.43216 9.15777 9.2872 9.39321 9.03718C9.62864 8.78716 9.76041 8.45185 9.76041 8.10274C9.76041 7.75363 9.62864 7.41833 9.39321 7.16831C9.15777 6.91829 8.83728 6.77333 8.50006 6.76432" fill="#E9EBF0"/>
<path d="M12.8894 3.31196C12.3129 2.71536 11.6285 2.24213 10.8752 1.91928C10.122 1.59643 9.31462 1.43028 8.49932 1.43032C7.68402 1.43036 6.8767 1.59659 6.12348 1.91952C5.37025 2.24245 4.68586 2.71575 4.10938 3.3124C3.5329 3.90905 3.07563 4.61737 2.76366 5.39691C2.4517 6.17645 2.29115 7.01195 2.29119 7.8557C2.29123 8.69945 2.45185 9.53493 2.76389 10.3144C3.07593 11.0939 3.53328 11.8022 4.10981 12.3988L5.39148 13.7074C6.09663 14.4211 6.98324 15.3125 8.0513 16.3816C8.17174 16.5019 8.33263 16.5692 8.50006 16.5692C8.66749 16.5692 8.82837 16.5019 8.94881 16.3816L11.8731 13.44C12.2779 13.0293 12.6167 12.6823 12.8894 12.3988C14.0535 11.194 14.7075 9.56004 14.7075 7.85627C14.7075 6.1525 14.0535 4.51851 12.8894 3.31374M8.50006 5.42545C8.83962 5.42545 9.17586 5.49466 9.48957 5.62914C9.80329 5.76362 10.0883 5.96073 10.3284 6.20922C10.5686 6.4577 10.759 6.7527 10.889 7.07736C11.0189 7.40202 11.0858 7.75 11.0858 8.10141C11.0858 8.45282 11.0189 8.80079 10.889 9.12545C10.759 9.45012 10.5686 9.74511 10.3284 9.9936C10.0883 10.2421 9.80329 10.4392 9.48957 10.5737C9.17586 10.7082 8.83962 10.7774 8.50006 10.7774C7.82256 10.7646 7.17699 10.4771 6.70224 9.9767C6.2275 9.47633 5.96151 8.8031 5.96151 8.10185C5.96151 7.4006 6.2275 6.72737 6.70224 6.22701C7.17699 5.72665 7.82256 5.43914 8.50006 5.42634M8.50006 6.76343C8.15694 6.76343 7.82787 6.90449 7.58525 7.15557C7.34263 7.40666 7.20632 7.74721 7.20632 8.1023C7.20632 8.45739 7.34263 8.79794 7.58525 9.04902C7.82787 9.30011 8.15694 9.44117 8.50006 9.44117C8.83728 9.43216 9.15777 9.2872 9.39321 9.03718C9.62864 8.78716 9.76041 8.45185 9.76041 8.10274C9.76041 7.75364 9.62864 7.41833 9.39321 7.16831C9.15777 6.91829 8.83728 6.77333 8.50006 6.76432M3.19679 2.36708C4.60331 0.911491 6.51095 0.09375 8.50006 0.09375C10.4892 0.09375 12.3968 0.911491 13.8033 2.36708C15.2098 3.82267 16 5.79687 16 7.85538C16 9.9139 15.2098 11.8881 13.8033 13.3437L12.7809 14.3902C12.0275 15.155 11.0496 16.1391 9.84719 17.3425C9.48579 17.7041 9.00276 17.9063 8.50006 17.9063C7.99735 17.9063 7.51432 17.7041 7.15292 17.3425L4.14599 14.3153C3.76757 13.9314 3.45118 13.6075 3.19679 13.3437C2.50033 12.623 1.94786 11.7673 1.57093 10.8257C1.194 9.88397 1 8.87467 1 7.85538C1 6.8361 1.194 5.8268 1.57093 4.88511C1.94786 3.94343 2.50033 3.0878 3.19679 2.36708Z" stroke="#E9EBF0" stroke-width="0.2"/>
</svg>
