<svg width="105" height="16" viewBox="0 0 105 16" fill="none" xmlns="http://www.w3.org/2000/svg">
<path d="M3.23 9.125V15H0.72V3.975H3.23V7.135C3.715 4.94 5.04 3.675 6.94 3.675C8.92 3.675 10.15 5.05 10.45 7.51C10.86 5.085 12.235 3.675 14.24 3.675C16.53 3.675 17.83 5.52 17.83 8.715V15H15.32V8.965C15.32 6.92 14.58 5.89 13.075 5.89C11.47 5.89 10.53 7.06 10.53 9.125V15H8.02V8.965C8.02 6.92 7.28 5.89 5.775 5.89C4.17 5.89 3.23 7.06 3.23 9.125ZM19.4411 7.915C19.4411 5.31 21.4211 3.675 24.6011 3.675C27.9161 3.675 29.8961 5.455 29.8961 8.46V15H27.3861V12.11C26.8711 14.09 25.2411 15.3 23.0011 15.3C20.6711 15.3 19.1161 13.985 19.1161 12.01C19.1161 9.96 20.7911 8.715 23.5561 8.715H27.3861V8.46C27.3861 6.795 26.3111 5.77 24.5511 5.77C22.7611 5.77 21.9461 6.605 21.9461 7.915H19.4411ZM27.3861 10.475H23.6961C22.3361 10.475 21.6161 10.945 21.6161 11.84C21.6161 12.78 22.4211 13.305 23.8611 13.305C25.9111 13.305 27.3861 12.25 27.3861 10.79V10.475ZM38.3339 14.915C37.4389 15.17 36.6489 15.295 35.9539 15.295C33.6439 15.295 32.4139 13.9 32.4139 11.2V6.015H30.9739V3.975H32.4139V1.435H34.9239V3.975H38.3339V6.015H34.9239V11.205C34.9239 12.57 35.4089 13.19 36.5089 13.19C36.9439 13.19 37.5339 13.09 38.3339 12.885V14.915ZM41.6469 9.485C41.6469 11.735 42.7669 13.08 44.6219 13.08C46.2169 13.08 47.0569 12.07 47.3069 10.745H49.8119C49.4769 13.36 47.5719 15.3 44.6169 15.3C41.3569 15.3 39.1269 12.985 39.1269 9.485C39.1269 5.985 41.3519 3.675 44.6169 3.675C47.5769 3.675 49.4769 5.615 49.8119 8.23H47.3069C47.0619 6.905 46.2219 5.895 44.6219 5.895C42.7669 5.895 41.6469 7.235 41.6469 9.485ZM53.7175 9.125V15H51.2075V0.2H53.7175V7.22C54.2175 4.97 55.6475 3.675 57.7025 3.675C60.1425 3.675 61.5375 5.515 61.5375 8.715V15H59.0275V8.965C59.0275 6.92 58.2075 5.89 56.5425 5.89C54.7625 5.89 53.7175 7.06 53.7175 9.125ZM62.8863 9.485C62.8863 5.985 65.1113 3.675 68.3763 3.675C71.6413 3.675 73.8663 5.985 73.8663 9.485C73.8663 12.985 71.6363 15.3 68.3763 15.3C65.1113 15.3 62.8863 12.985 62.8863 9.485ZM65.4063 9.485C65.4063 11.735 66.5263 13.08 68.3813 13.08C70.2313 13.08 71.3463 11.74 71.3463 9.485C71.3463 7.23 70.2313 5.895 68.3813 5.895C66.5263 5.895 65.4063 7.235 65.4063 9.485ZM75.0198 9.485C75.0198 5.985 77.2448 3.675 80.5098 3.675C83.7748 3.675 85.9998 5.985 85.9998 9.485C85.9998 12.985 83.7698 15.3 80.5098 15.3C77.2448 15.3 75.0198 12.985 75.0198 9.485ZM77.5398 9.485C77.5398 11.735 78.6598 13.08 80.5148 13.08C82.3648 13.08 83.4798 11.74 83.4798 9.485C83.4798 7.23 82.3648 5.895 80.5148 5.895C78.6598 5.895 77.5398 7.235 77.5398 9.485ZM89.9034 9.125V15H87.3934V3.975H89.9034V7.135C90.3884 4.94 91.7134 3.675 93.6134 3.675C95.5934 3.675 96.8234 5.05 97.1234 7.51C97.5334 5.085 98.9084 3.675 100.913 3.675C103.203 3.675 104.503 5.52 104.503 8.715V15H101.993V8.965C101.993 6.92 101.253 5.89 99.7484 5.89C98.1434 5.89 97.2034 7.06 97.2034 9.125V15H94.6934V8.965C94.6934 6.92 93.9534 5.89 92.4484 5.89C90.8434 5.89 89.9034 7.06 89.9034 9.125Z" fill="white"/>
</svg>
