<svg width="142" height="20" viewBox="0 0 142 20" fill="none" xmlns="http://www.w3.org/2000/svg">
<path fill-rule="evenodd" clip-rule="evenodd" d="M18.2221 3.08622L17.4694 4.9745C16.9984 6.15616 16.3901 7.14329 15.6852 7.96661H24.3833C24.674 7.96532 24.9553 7.96582 25.2252 7.96661H25.912H27.9465V7.96838H28V12.0334H25.9656C25.7985 12.0334 25.6306 12.0331 25.462 12.0329C23.2931 12.0294 21.0181 12.0259 18.968 12.5837C16.8809 13.1517 15.2194 14.2498 14.3107 16.5294L13.558 18.4177L9.77791 16.9138L10.5306 15.0255C11.0019 13.843 11.6107 12.8553 12.3163 12.0316H3.89295C3.43689 12.0355 3.00183 12.0341 2.5948 12.0328C2.40143 12.0322 2.21439 12.0316 2.03442 12.0316H0V7.96661H2.03442H3.56155C5.41259 7.95796 7.30231 7.88694 9.03199 7.41626C11.1191 6.84833 12.7806 5.7502 13.6893 3.47056L14.442 1.58228L18.2221 3.08622Z" fill="url(#paint0_linear_1221_1289)"/>
<path d="M39.23 10.125V16H36.72V4.975H39.23V8.135C39.715 5.94 41.04 4.675 42.94 4.675C44.92 4.675 46.15 6.05 46.45 8.51C46.86 6.085 48.235 4.675 50.24 4.675C52.53 4.675 53.83 6.52 53.83 9.715V16H51.32V9.965C51.32 7.92 50.58 6.89 49.075 6.89C47.47 6.89 46.53 8.06 46.53 10.125V16H44.02V9.965C44.02 7.92 43.28 6.89 41.775 6.89C40.17 6.89 39.23 8.06 39.23 10.125ZM55.4411 8.915C55.4411 6.31 57.4211 4.675 60.6011 4.675C63.9161 4.675 65.8961 6.455 65.8961 9.46V16H63.3861V13.11C62.8711 15.09 61.2411 16.3 59.0011 16.3C56.6711 16.3 55.1161 14.985 55.1161 13.01C55.1161 10.96 56.7911 9.715 59.5561 9.715H63.3861V9.46C63.3861 7.795 62.3111 6.77 60.5511 6.77C58.7611 6.77 57.9461 7.605 57.9461 8.915H55.4411ZM63.3861 11.475H59.6961C58.3361 11.475 57.6161 11.945 57.6161 12.84C57.6161 13.78 58.4211 14.305 59.8611 14.305C61.9111 14.305 63.3861 13.25 63.3861 11.79V11.475ZM74.3339 15.915C73.4389 16.17 72.6489 16.295 71.9539 16.295C69.6439 16.295 68.4139 14.9 68.4139 12.2V7.015H66.9739V4.975H68.4139V2.435H70.9239V4.975H74.3339V7.015H70.9239V12.205C70.9239 13.57 71.4089 14.19 72.5089 14.19C72.9439 14.19 73.5339 14.09 74.3339 13.885V15.915ZM77.6469 10.485C77.6469 12.735 78.7669 14.08 80.6219 14.08C82.2169 14.08 83.0569 13.07 83.3069 11.745H85.8119C85.4769 14.36 83.5719 16.3 80.6169 16.3C77.3569 16.3 75.1269 13.985 75.1269 10.485C75.1269 6.985 77.3519 4.675 80.6169 4.675C83.5769 4.675 85.4769 6.615 85.8119 9.23H83.3069C83.0619 7.905 82.2219 6.895 80.6219 6.895C78.7669 6.895 77.6469 8.235 77.6469 10.485ZM89.7175 10.125V16H87.2075V1.2H89.7175V8.22C90.2175 5.97 91.6475 4.675 93.7025 4.675C96.1425 4.675 97.5375 6.515 97.5375 9.715V16H95.0275V9.965C95.0275 7.92 94.2075 6.89 92.5425 6.89C90.7625 6.89 89.7175 8.06 89.7175 10.125ZM98.8863 10.485C98.8863 6.985 101.111 4.675 104.376 4.675C107.641 4.675 109.866 6.985 109.866 10.485C109.866 13.985 107.636 16.3 104.376 16.3C101.111 16.3 98.8863 13.985 98.8863 10.485ZM101.406 10.485C101.406 12.735 102.526 14.08 104.381 14.08C106.231 14.08 107.346 12.74 107.346 10.485C107.346 8.23 106.231 6.895 104.381 6.895C102.526 6.895 101.406 8.235 101.406 10.485ZM111.02 10.485C111.02 6.985 113.245 4.675 116.51 4.675C119.775 4.675 122 6.985 122 10.485C122 13.985 119.77 16.3 116.51 16.3C113.245 16.3 111.02 13.985 111.02 10.485ZM113.54 10.485C113.54 12.735 114.66 14.08 116.515 14.08C118.365 14.08 119.48 12.74 119.48 10.485C119.48 8.23 118.365 6.895 116.515 6.895C114.66 6.895 113.54 8.235 113.54 10.485ZM125.903 10.125V16H123.393V4.975H125.903V8.135C126.388 5.94 127.713 4.675 129.613 4.675C131.593 4.675 132.823 6.05 133.123 8.51C133.533 6.085 134.908 4.675 136.913 4.675C139.203 4.675 140.503 6.52 140.503 9.715V16H137.993V9.965C137.993 7.92 137.253 6.89 135.748 6.89C134.143 6.89 133.203 8.06 133.203 10.125V16H130.693V9.965C130.693 7.92 129.953 6.89 128.448 6.89C126.843 6.89 125.903 8.06 125.903 10.125Z" fill="white"/>
<defs>
<linearGradient id="paint0_linear_1221_1289" x1="8.40535" y1="2.38458" x2="17.9752" y2="18.3851" gradientUnits="userSpaceOnUse">
<stop offset="0.202508" stop-color="#74EFC2"/>
<stop offset="0.850495" stop-color="#4174F7"/>
</linearGradient>
</defs>
</svg>
