<svg width="17" height="16" viewBox="0 0 17 16" fill="none" xmlns="http://www.w3.org/2000/svg">
<path fill-rule="evenodd" clip-rule="evenodd" d="M1 8C1 3.85776 4.35776 0.5 8.5 0.5C12.6422 0.5 16 3.85776 16 8C16 12.1422 12.6422 15.5 8.5 15.5C4.35776 15.5 1 12.1422 1 8ZM8.5 1.78571C5.06784 1.78571 2.28571 4.56784 2.28571 8C2.28571 11.4322 5.06784 14.2143 8.5 14.2143C11.9322 14.2143 14.7143 11.4322 14.7143 8C14.7143 4.56784 11.9322 1.78571 8.5 1.78571Z" fill="#E9EBF0" stroke="#E9EBF0" stroke-width="0.2" stroke-linejoin="round"/>
<path fill-rule="evenodd" clip-rule="evenodd" d="M8.28121 3.3125C8.67814 3.3125 8.99991 3.6047 8.99991 3.96515V7.8753L12.0395 10.6359C12.3202 10.8908 12.3202 11.304 12.0395 11.5589C11.7588 11.8137 11.3037 11.8137 11.0231 11.5588L7.77297 8.60708C7.63821 8.48469 7.5625 8.31869 7.5625 8.14561V3.96515C7.5625 3.6047 7.88428 3.3125 8.28121 3.3125Z" fill="#E9EBF0" stroke="#E9EBF0" stroke-width="0.2" stroke-linecap="round" stroke-linejoin="round"/>
</svg>
